<svg xmlns="http://www.w3.org/2000/svg" viewBox="0.5825 0.12149999999999928 31.9326 4.6000000000000005" role="img" aria-label="Wörter und Zeichen"><g fill="none" stroke="#000000" stroke-width="0.0650" stroke-linecap="round" stroke-linejoin="round"><path d="M 1.5248,1.9205 L 1.3823,1.8635 L 1.2971,1.7885 L 1.2971,1.6655 L 1.3631,1.5125 L 1.5248,1.4375 L 1.7888,1.4465 L 2.0048,1.4945 L 2.5808,1.7135 L 2.7998,1.7315 L 3.1028,1.7315 L 3.1958,1.6835 L 3.2438,1.6355 L 3.2438,1.5695 L 3.2168,1.5125 L 3.1598,1.4855 L 3.0158,1.5035 L 2.8928,1.5785 L 2.6288,1.8335 L 2.2508,2.2325 L 1.9688,2.6285 L 1.7318,3.0335 L 1.4948,3.5927 L 1.3253,3.7058 L 1.1837,3.7250 L 1.0610,3.6491 L 1.0325,3.5549 L 1.1459,3.4697 L 1.2782,3.4223 L 2.0528,3.4697 L 2.2988,3.4319 L 2.5538,3.3563 L 2.7518,3.2618 L 3.0158,3.0245 L 3.2828,2.7125 L 3.4508,2.2775 L 3.5378,1.9475 L 3.5648,1.6655 L 3.5378,1.6265 L 3.4808,1.6265 L 3.4238,1.7015 L 3.3368,2.0225 L 3.3008,2.5055 L 3.2348,2.9795 L 3.1868,3.1955 L 3.0638,3.4319 L 2.9228,3.6587 L 2.8088,3.7625 L 2.7038,3.8105 L 2.6198,3.8105 L 2.5538,3.7250 L 2.5628,3.6680 L 2.6108,3.6113 L 2.7158,3.5927 L 3.2828,3.5831 L 3.5288,3.5169 L 3.8108,3.3752 L 4.1048,3.0725 L 4.3304,2.7125 L 4.4627,2.3255 L 4.5386,1.9955 L 4.5479,1.6355"/><path d="M 5.9951,2.4005 L 5.8991,2.2895 L 5.5961,2.2505 L 5.2571,2.3555 L 4.9355,2.5895 L 4.7275,2.8475 L 4.6613,3.0725 L 4.6802,3.2429 L 4.7843,3.3848 L 4.9826,3.4508 L 5.1731,3.3941 L 5.5121,3.2147 L 5.8601,2.8565 L 6.0311,2.5805 L 6.0311,2.4575 L 5.9651,2.3915 L 5.8721,2.4125 L 5.7191,2.6105 L 5.7191,2.7785 L 5.7671,2.9495 L 5.8721,3.0545 L 6.0971,3.1295 L 6.2861,3.1115 L 6.5621,2.9405"/><path d="M 5.5901,1.5305 L 5.5121,1.6265 L 5.6081,1.7105 L 5.7011,1.6265 L 5.5901,1.5305"/><path d="M 6.3131,1.5155 L 6.2381,1.6085 L 6.3311,1.6955 L 6.4271,1.6085 L 6.3131,1.5155"/><path d="M 6.5621,2.9405 L 6.7418,2.7995 L 6.9401,2.5625 L 7.0541,2.3555 L 7.1111,2.2985 L 7.1471,2.2025 L 7.1291,2.1275 L 7.0631,2.1005 L 7.0061,2.1455 L 7.0061,2.2115 L 7.0901,2.3075 L 7.2701,2.3645 L 7.4801,2.3915 L 7.5071,2.4485 L 7.4681,2.5355 L 7.0901,3.0545 L 7.0151,3.2429 L 7.0541,3.4130 L 7.1771,3.4791 L 7.3001,3.4697 L 7.5071,3.3467 L 8.0081,2.9405"/><path d="M 8.0081,2.9405 L 8.7251,2.3555 L 9.1811,1.8905 L 9.4631,1.4855 L 9.6341,1.0985 L 9.5861,1.0325 L 9.4931,1.0895 L 8.6501,2.6285 L 8.3681,3.2045 L 8.3591,3.3092 L 8.4041,3.3941 L 8.5271,3.4415 L 8.6801,3.4415 L 8.9441,3.3467 L 9.2831,3.1475 L 9.4811,2.9405"/><path d="M 8.3471,2.1935 L 9.3881,2.2325"/><path d="M 9.5849,2.5805 L 9.9341,2.7515 L 10.2281,2.7785 L 10.4351,2.7515 L 10.5971,2.6675 L 10.7111,2.5535 L 10.7471,2.4215 L 10.7381,2.3555 L 10.6151,2.2325 L 10.4081,2.1845 L 10.1051,2.2775 L 9.7841,2.5055 L 9.5567,2.7785 L 9.4527,2.9975 L 9.4433,3.2147 L 9.5189,3.3278 L 9.6416,3.4130 L 9.7268,3.4319 L 10.0211,3.4319 L 10.3331,3.3374 L 10.6721,3.1685 L 10.9751,2.9405"/><path d="M 10.9751,2.9405 L 11.1548,2.7995 L 11.3531,2.5625 L 11.4671,2.3555 L 11.5241,2.2985 L 11.5601,2.2025 L 11.5421,2.1275 L 11.4761,2.1005 L 11.4191,2.1455 L 11.4191,2.2115 L 11.5031,2.3075 L 11.6831,2.3645 L 11.8931,2.3915 L 11.9201,2.4485 L 11.8811,2.5355 L 11.5031,3.0545 L 11.4281,3.2429 L 11.4671,3.4130 L 11.5901,3.4791 L 11.7131,3.4697 L 11.9201,3.3467 L 12.4211,2.9405"/><path d="M 14.0381,2.2415 L 13.6967,2.7125 L 13.5173,2.9975 L 13.4606,3.1685 L 13.4699,3.2807 L 13.5834,3.3563 L 13.7441,3.3659 L 13.9331,3.2996 L 14.1791,3.1685 L 14.4821,2.9405 L 14.7281,2.6855 L 15.1061,2.2415 L 14.6051,2.8355 L 14.4731,3.0905 L 14.4341,3.2711 L 14.4521,3.3563 L 14.5181,3.4037 L 14.6411,3.3941 L 14.8301,3.3467 L 15.1151,3.1865 L 15.3791,2.9405"/><path d="M 15.6821,2.3255 L 15.6719,2.4695 L 15.3791,2.9495 L 15.0761,3.3659 L 15.4829,2.8745 L 15.7571,2.6195 L 16.0301,2.4305 L 16.2581,2.3255 L 16.5311,2.2985 L 16.6631,2.3255 L 16.7591,2.4125 L 16.7681,2.5235 L 16.3811,3.1385 L 16.3331,3.2522 L 16.3631,3.3374 L 16.4381,3.3941 L 16.5701,3.4037 L 16.7771,3.3278 L 16.9751,3.2045 L 17.2961,2.9405"/><path d="M 18.6671,2.6855 L 18.7241,2.4965 L 18.6461,2.3255 L 18.4031,2.2595 L 18.0341,2.3345 L 17.6351,2.5715 L 17.4284,2.7605 L 17.2866,2.9495 L 17.2298,3.1205 L 17.2677,3.2522 L 17.3813,3.3848 L 17.6261,3.4508 L 17.8541,3.3752 L 18.2021,3.1475 L 18.8651,2.4575 L 19.2341,2.1365 L 19.5911,1.7495 L 19.7051,1.5905 L 19.7261,1.5125 L 19.6961,1.4555 L 19.6391,1.4465 L 19.5251,1.5035 L 18.8831,2.3465 L 18.4391,2.9975 L 18.3461,3.1685 L 18.3251,3.2903 L 18.3461,3.3563 L 18.4121,3.4037 L 18.5261,3.3848 L 18.7691,3.2903 L 18.9701,3.1685 L 19.2041,2.9405"/><path d="M 20.9231,1.9955 L 20.8481,1.8545 L 20.8391,1.6745 L 20.9231,1.5125 L 21.0461,1.4375 L 21.1601,1.4285 L 21.6701,1.6085 L 21.9161,1.6745 L 22.5491,1.7885 L 22.8701,1.7675 L 23.0891,1.6925 L 23.1821,1.6265 L 23.1641,1.5035 L 23.1071,1.4555 L 22.9361,1.4465 L 22.7681,1.4675 L 22.5671,1.5515 L 22.3781,1.6835 L 22.1801,1.8815 L 21.8321,2.3825 L 21.6131,2.6555 L 20.9441,3.3374 L 20.7341,3.4980 L 20.4986,3.5453 L 20.2907,3.5169 L 20.2343,3.4697 L 20.2154,3.3848 L 20.2718,3.2147 L 20.4419,3.1475 L 20.6681,3.1565 L 20.9231,3.2045 L 21.9551,3.5642 L 22.2761,3.6209 L 22.5971,3.6020 L 22.7771,3.4791 L 22.8041,3.2333 L 22.7951,3.2045"/><path d="M 23.0969,2.5805 L 23.4461,2.7515 L 23.7401,2.7785 L 23.9471,2.7515 L 24.1091,2.6675 L 24.2231,2.5535 L 24.2591,2.4215 L 24.2501,2.3555 L 24.1271,2.2325 L 23.9201,2.1845 L 23.6171,2.2775 L 23.2961,2.5055 L 23.0687,2.7785 L 22.9648,2.9975 L 22.9553,3.2147 L 23.0309,3.3278 L 23.1536,3.4130 L 23.2388,3.4319 L 23.5331,3.4319 L 23.8451,3.3374 L 24.1841,3.1685 L 24.4871,2.9405"/><path d="M 24.9701,2.2685 L 24.5627,2.8085 L 24.4115,3.0725 L 24.3737,3.1955 L 24.3833,3.2711 L 24.4115,3.3374 L 24.4588,3.3848 L 24.5723,3.3941 L 24.8921,3.3092 L 25.1291,3.1775 L 25.4051,2.9405"/><path d="M 25.1681,1.8635 L 25.1021,1.9475 L 25.1861,2.0135 L 25.2611,1.9295 L 25.1681,1.8635"/><path d="M 26.4551,2.5145 L 26.4551,2.4395 L 26.3771,2.3345 L 26.1611,2.3075 L 25.9061,2.4215 L 25.6034,2.6675 L 25.4429,2.8565 L 25.3577,3.0455 L 25.3673,3.2240 L 25.5185,3.3659 L 25.8101,3.4037 L 26.2001,3.3185 L 26.9261,2.9405"/><path d="M 27.2651,2.3915 L 27.6731,2.1365 L 28.0331,1.8545 L 28.3811,1.5425 L 28.5341,1.3805 L 28.5701,1.2575 L 28.5431,1.1645 L 28.4951,1.1165 L 28.3901,1.0985 L 28.1831,1.2965 L 27.7481,1.7675 L 27.4541,2.1275 L 26.9545,2.8835 L 26.7278,3.3563 L 27.0962,2.8655 L 27.5021,2.4395 L 27.7661,2.2685 L 28.0991,2.2505 L 28.2101,2.3345 L 28.2491,2.5235 L 28.1651,2.7125 L 27.9101,3.0065 L 27.7661,3.2045 L 27.7781,3.3659 L 27.8321,3.3848 L 27.9761,3.3467 L 28.1921,3.2618 L 28.4291,3.1385 L 28.6541,2.9405"/><path d="M 28.7579,2.5805 L 29.1071,2.7515 L 29.4011,2.7785 L 29.6081,2.7515 L 29.7701,2.6675 L 29.8841,2.5535 L 29.9201,2.4215 L 29.9111,2.3555 L 29.7881,2.2325 L 29.5811,2.1845 L 29.2781,2.2775 L 28.9571,2.5055 L 28.7297,2.7785 L 28.6258,2.9975 L 28.6163,3.2147 L 28.6919,3.3278 L 28.8146,3.4130 L 28.8998,3.4319 L 29.1941,3.4319 L 29.5061,3.3374 L 29.8451,3.1685 L 30.1481,2.9405"/><path d="M 30.4511,2.3255 L 30.4409,2.4695 L 30.1481,2.9495 L 29.8451,3.3659 L 30.2519,2.8745 L 30.5261,2.6195 L 30.7991,2.4305 L 31.0271,2.3255 L 31.3001,2.2985 L 31.4321,2.3255 L 31.5281,2.4125 L 31.5371,2.5235 L 31.1501,3.1385 L 31.1021,3.2522 L 31.1321,3.3374 L 31.2071,3.3941 L 31.3391,3.4037 L 31.5461,3.3278 L 31.7441,3.2045 L 32.0651,2.9405"/></g></svg>