<svg xmlns="http://www.w3.org/2000/svg" viewBox="0.5825 -0.24600000000000044 18.581999999999997 4.6000000000000005" role="img" aria-label="Words and letters"><g fill="none" stroke="#000000" stroke-width="0.0650" stroke-linecap="round" stroke-linejoin="round"><path d="M 2.4815,1.2665 L 2.4117,1.6708 L 2.2554,2.2022 L 2.0774,2.6296 L 1.9629,2.8195 L 1.9085,2.8595 L 1.8725,2.8278 L 1.8429,2.7384 L 1.8160,2.4694 L 1.8304,2.0257 L 1.8875,1.4315"/><path d="M 1.8725,1.4375 L 1.7231,1.9207 L 1.5432,2.4162 L 1.3781,2.8027 L 1.3150,2.9170 L 1.2725,2.9585 L 1.2403,2.9223 L 1.1916,2.7497 L 1.1226,2.2409 L 1.0896,1.6083 L 1.1075,1.1135"/><path d="M 1.8875,1.4315 L 1.8725,1.4375"/><path d="M 1.0925,1.1075 L 1.0467,1.4896 L 1.0325,1.8965"/><path d="M 1.1075,1.1135 L 1.0925,1.1075"/><path d="M 3.0275,2.3945 L 3.1193,2.2488 L 3.1978,2.1827 L 3.2618,2.1529 L 3.3275,2.1425 L 3.3957,2.1570 L 3.4331,2.1852 L 3.4652,2.2427 L 3.4728,2.3958 L 3.4439,2.5062 L 3.3930,2.6127 L 3.2444,2.7985 L 3.0654,2.9212 L 2.9345,2.9525 L 2.8517,2.9330 L 2.7855,2.8570 L 2.7665,2.7485 L 2.7898,2.5995 L 2.8561,2.4365 L 2.9601,2.2667 L 3.0965,2.0975 L 2.5415,2.6195"/><path d="M 3.3965,2.8805 L 3.5486,2.7648 L 3.7025,2.6195"/><path d="M 3.7025,2.6195 L 3.9477,2.3529 L 4.1555,2.0675"/><path d="M 4.1555,2.0675 L 4.0235,2.0705"/><path d="M 4.0235,2.0705 L 4.2489,2.2116 L 4.2955,2.2670 L 4.3236,2.3397 L 4.3151,2.4807 L 4.2088,2.9149 L 4.2120,2.9831 L 4.2826,2.9740 L 4.3824,2.9141 L 4.7165,2.6195"/><path d="M 4.7165,2.6195 L 5.2086,2.1535 L 5.5805,1.8785"/><path d="M 5.5805,1.8785 L 5.3108,2.0730 L 5.1658,2.2123 L 5.0476,2.3526 L 4.9550,2.4885 L 4.8620,2.6716 L 4.8212,2.8130 L 4.8347,2.9102 L 4.8715,2.9371 L 4.9234,2.9373 L 5.0572,2.8650 L 5.2646,2.6565 L 5.4424,2.4119 L 5.6500,2.0448 L 5.8388,1.6402 L 6.0123,1.1897 L 6.0440,1.0772 L 6.0395,1.0325 L 5.9916,1.0852 L 5.9002,1.2567 L 5.7501,1.6565 L 5.6605,2.0568 L 5.6384,2.3764 L 5.6830,2.6081 L 5.7295,2.6909 L 5.7915,2.7445 L 5.8685,2.7635 L 5.9376,2.7507 L 6.0236,2.7036 L 6.1175,2.6195"/><path d="M 6.4925,3.0755 L 6.5819,3.0358 L 6.7152,2.9360 L 7.0565,2.6195"/><path d="M 6.1175,2.6195 L 6.4074,2.3169 L 6.6485,2.0315"/><path d="M 6.6485,2.0315 L 6.6635,2.0375"/><path d="M 6.6635,2.0375 L 6.6874,2.3217 L 6.6666,2.6515 L 6.6051,2.9262 L 6.5531,3.0347 L 6.5135,3.0707 L 6.4635,3.0652 L 6.4288,3.0188 L 6.3977,2.9248 L 6.3785,2.7815"/><path d="M 7.6625,2.6195 L 8.0521,2.2624 L 8.5535,1.8965"/><path d="M 8.5535,1.8965 L 8.5595,1.9025"/><path d="M 8.5595,1.9025 L 8.2351,2.1737 L 7.9442,2.4806 L 7.8053,2.7000 L 7.7855,2.7875 L 7.7976,2.8355 L 7.8337,2.8583 L 7.8911,2.8522 L 8.0494,2.7631 L 8.2915,2.5545 L 8.5535,2.2865"/><path d="M 8.5535,2.2865 L 8.5085,2.5385 L 8.5198,2.6253 L 8.5630,2.7030 L 8.6331,2.7419 L 8.7147,2.7396 L 8.8063,2.6971 L 8.8955,2.6195"/><path d="M 8.8955,2.6195 L 9.2747,2.2430 L 9.3625,2.1726 L 9.4235,2.1455 L 9.4529,2.1820 L 9.4370,2.2842 L 9.1998,2.9169 L 9.1868,3.0144 L 9.2866,2.9424 L 9.7248,2.4748 L 9.8944,2.3525 L 9.9487,2.3514 L 9.9880,2.3866 L 10.1034,2.7135 L 10.1564,2.7766 L 10.1994,2.7785 L 10.2437,2.7568 L 10.3955,2.6195"/><path d="M 10.3955,2.6195 L 10.8876,2.1535 L 11.2595,1.8785"/><path d="M 11.2595,1.8785 L 10.9898,2.0730 L 10.8448,2.2123 L 10.7266,2.3526 L 10.6340,2.4885 L 10.5410,2.6716 L 10.5002,2.8130 L 10.5137,2.9102 L 10.5505,2.9371 L 10.6024,2.9373 L 10.7362,2.8650 L 10.9436,2.6565 L 11.1214,2.4119 L 11.3290,2.0448 L 11.5178,1.6402 L 11.6913,1.1897 L 11.7230,1.0772 L 11.7185,1.0325 L 11.6706,1.0852 L 11.5792,1.2567 L 11.4291,1.6565 L 11.3395,2.0568 L 11.3174,2.3764 L 11.3620,2.6081 L 11.4085,2.6909 L 11.4705,2.7445 L 11.5475,2.7635 L 11.6166,2.7507 L 11.7026,2.7036 L 11.7965,2.6195"/><path d="M 12.4025,2.6195 L 12.6289,2.3771 L 12.7912,2.1707 L 13.0348,1.7761 L 13.1499,1.5147 L 13.2103,1.3004 L 13.2177,1.1433 L 13.2016,1.1040 L 13.1765,1.0925 L 13.1080,1.1376 L 13.0300,1.2603 L 12.8686,1.6632 L 12.7654,2.0291 L 12.7158,2.2679 L 12.6861,2.6239 L 12.7014,2.7261 L 12.7394,2.8109 L 12.7874,2.8529 L 12.8555,2.8685 L 12.9343,2.8544 L 13.0423,2.8009 L 13.2515,2.6195"/><path d="M 13.2515,2.6195 L 13.3445,2.5265 L 13.6197,2.3571 L 13.7640,2.2212 L 13.8292,2.1291 L 13.8586,2.0525 L 13.8460,1.9860 L 13.7915,1.9625 L 13.6948,1.9951 L 13.5826,2.0845 L 13.4735,2.2175 L 13.4117,2.3242 L 13.3650,2.4407 L 13.3390,2.5632 L 13.3392,2.6846 L 13.3687,2.7897 L 13.4106,2.8522 L 13.4697,2.8963 L 13.5461,2.9180 L 13.6509,2.9111 L 13.8579,2.8200 L 14.0945,2.6195"/><path d="M 14.0945,2.6195 L 14.2670,2.4224 L 14.5215,2.0694 L 14.7375,1.7215 L 14.8775,1.4525"/><path d="M 14.1695,1.6955 L 14.5644,1.7097 L 15.0065,1.7015"/><path d="M 14.8775,1.4525 L 14.6646,2.0124 L 14.5295,2.4674 L 14.4779,2.7722 L 14.4782,2.8914 L 14.4985,2.9595 L 14.5275,2.9809 L 14.5614,2.9801 L 14.6614,2.9301 L 14.8071,2.8127 L 15.0065,2.6195"/><path d="M 15.0065,2.6195 L 15.1790,2.4224 L 15.4335,2.0694 L 15.6495,1.7215 L 15.7895,1.4525"/><path d="M 15.0815,1.6955 L 15.4764,1.7097 L 15.9185,1.7015"/><path d="M 15.7895,1.4525 L 15.5766,2.0124 L 15.4415,2.4674 L 15.3899,2.7722 L 15.3902,2.8914 L 15.4105,2.9595 L 15.4395,2.9809 L 15.4734,2.9801 L 15.5734,2.9301 L 15.7191,2.8127 L 15.9185,2.6195"/><path d="M 15.9185,2.6195 L 16.0115,2.5265 L 16.2867,2.3571 L 16.4310,2.2212 L 16.4962,2.1291 L 16.5256,2.0525 L 16.5130,1.9860 L 16.4585,1.9625 L 16.3618,1.9951 L 16.2496,2.0845 L 16.1405,2.2175 L 16.0787,2.3242 L 16.0320,2.4407 L 16.0060,2.5632 L 16.0062,2.6846 L 16.0357,2.7897 L 16.0776,2.8522 L 16.1367,2.8963 L 16.2131,2.9180 L 16.3179,2.9111 L 16.5249,2.8200 L 16.7615,2.6195"/><path d="M 16.7615,2.6195 L 17.0067,2.3529 L 17.2145,2.0675"/><path d="M 17.2145,2.0675 L 17.0825,2.0705"/><path d="M 17.0825,2.0705 L 17.3079,2.2116 L 17.3545,2.2670 L 17.3826,2.3397 L 17.3741,2.4807 L 17.2678,2.9149 L 17.2710,2.9831 L 17.3416,2.9740 L 17.4414,2.9141 L 17.7755,2.6195"/><path d="M 18.1505,3.0755 L 18.2399,3.0358 L 18.3732,2.9360 L 18.7145,2.6195"/><path d="M 17.7755,2.6195 L 18.0654,2.3169 L 18.3065,2.0315"/><path d="M 18.3065,2.0315 L 18.3215,2.0375"/><path d="M 18.3215,2.0375 L 18.3454,2.3217 L 18.3246,2.6515 L 18.2631,2.9262 L 18.2111,3.0347 L 18.1715,3.0707 L 18.1215,3.0652 L 18.0868,3.0188 L 18.0557,2.9248 L 18.0365,2.7815"/></g></svg>